<svg id="Layer_1" data-name="Layer 1" xmlns="http://www.w3.org/2000/svg" width="0.4in" height="0.4in" viewBox="0 0 32.1 32.1"><title>icon</title><rect width="32.1" height="32.07" fill="#3186ba"/><path d="M12.1,8.4a5.1,5.1,0,0,0-3.2-1A5.4,5.4,0,0,0,6.2,8,6,6,0,0,0,4.3,9.6,6.6,6.6,0,0,0,3.2,12a11,11,0,0,0-.4,2.7,12.6,12.6,0,0,0,.4,2.8,6.6,6.6,0,0,0,1.1,2.4,4.9,4.9,0,0,0,1.9,1.6,5.4,5.4,0,0,0,2.7.6,4.6,4.6,0,0,0,2.1-.4,5.4,5.4,0,0,0,1.6-1,4.8,4.8,0,0,0,1-1.7,6.5,6.5,0,0,0,.5-2h2.3a7.9,7.9,0,0,1-2.3,5.2,7.3,7.3,0,0,1-5.4,1.9,8,8,0,0,1-3.6-.7A7.5,7.5,0,0,1,1,18.5a11.4,11.4,0,0,1-.5-3.7A10.5,10.5,0,0,1,1,11.2a8.6,8.6,0,0,1,1.6-3,6.8,6.8,0,0,1,2.7-2,8,8,0,0,1,3.6-.8,12.6,12.6,0,0,1,2.7.4,9.1,9.1,0,0,1,2.2,1.1,6.9,6.9,0,0,1,1.6,1.8,9.2,9.2,0,0,1,.9,2.5H13.9A4.6,4.6,0,0,0,12.1,8.4Z" transform="translate(0.1 0.1)" fill="#fff"/><path d="M21.8,5.9V21.7h9.4v2H19.4V5.9Z" transform="translate(0.1 0.1)" fill="#fff"/></svg>